<?xml version="1.0" encoding="UTF-8" standalone="no"?><!DOCTYPE svg PUBLIC "-//W3C//DTD SVG 1.1//EN" "http://www.w3.org/Graphics/SVG/1.1/DTD/svg11.dtd"><!-- Generated by graphviz version 2.39.20160930.0541 (20160930.0541) --><!-- Title: FlowChart Pages: 1 --><svg width="617pt" height="756pt" viewBox="0.00 0.00 617 755.7" xmlns="http://www.w3.org/2000/svg" xmlns:xlink="http://www.w3.org/1999/xlink"><defs><radialGradient id="g-terminator882na2ftc" cx="0.5" cy="0.5" fx="0.9" fy="0.9" r="1" x1="0%" x2="0%" y1="100%" y2="0%" spreadMethod="pad"><stop offset="0%" stop-color="#C32F06" stop-opacity="1"/><stop offset="100%" stop-color="#C32F06" stop-opacity="1"/></radialGradient><radialGradient id="g-decision882na2ftc" cx="0.5" cy="0.5" fx="0.9" fy="0.9" r="1" x1="0%" x2="0%" y1="100%" y2="0%" spreadMethod="pad"><stop offset="0%" stop-color="#d1461b" stop-opacity="1"/><stop offset="100%" stop-color="#d1461b" stop-opacity="1"/></radialGradient><radialGradient id="g-process882na2ftc" cx="0.5" cy="0.5" fx="0.9" fy="0.9" r="1" x1="0%" x2="0%" y1="100%" y2="0%" spreadMethod="pad"><stop offset="0%" stop-color="#3f51b5" stop-opacity="1"/><stop offset="100%" stop-color="#3f51b5" stop-opacity="1"/></radialGradient><radialGradient id="g-default882na2ftc" cx="0.5" cy="0.5" fx="0.9" fy="0.9" r="1" x1="0%" x2="0%" y1="100%" y2="0%" spreadMethod="pad"><stop offset="0%" stop-color="#005100" stop-opacity="1"/><stop offset="100%" stop-color="#005100" stop-opacity="1"/></radialGradient><radialGradient id="g-module882na2ftc" cx="0.5" cy="0.5" fx="0.9" fy="0.9" r="1" x1="0%" x2="0%" y1="100%" y2="0%" spreadMethod="pad"><stop offset="0%" stop-color="#009688" stop-opacity="1"/><stop offset="100%" stop-color="#009688" stop-opacity="1"/></radialGradient><radialGradient id="g-dataio882na2ftc" cx="0.5" cy="0.5" fx="0.9" fy="0.9" r="1" x1="0%" x2="0%" y1="100%" y2="0%" spreadMethod="pad"><stop offset="0%" stop-color="#607d8b" stop-opacity="1"/><stop offset="100%" stop-color="#607d8b" stop-opacity="1"/></radialGradient><radialGradient id="g-preparation882na2ftc" cx="0.5" cy="0.5" fx="0.9" fy="0.9" r="1" x1="0%" x2="0%" y1="100%" y2="0%" spreadMethod="pad"><stop offset="0%" stop-color="#607d8b" stop-opacity="1"/><stop offset="100%" stop-color="#607d8b" stop-opacity="1"/></radialGradient><radialGradient id="g-comment882na2ftc" cx="0.5" cy="0.5" fx="0.9" fy="0.9" r="1" x1="0%" x2="0%" y1="100%" y2="0%" spreadMethod="pad"><stop offset="0%" stop-color="#ffab40" stop-opacity="1"/><stop offset="100%" stop-color="#ffab40" stop-opacity="1"/></radialGradient><radialGradient id="g-manual882na2ftc" cx="0.5" cy="0.5" fx="0.9" fy="0.9" r="1" x1="0%" x2="0%" y1="100%" y2="0%" spreadMethod="pad"><stop offset="0%" stop-color="#673ab7" stop-opacity="1"/><stop offset="100%" stop-color="#673ab7" stop-opacity="1"/></radialGradient></defs><g id="page0,1_graph0" class="graph" transform="scale(0.788388 0.788388) rotate(0) translate(4 948.2)"><title>FlowChart</title><!-- terminator_block_1 --><g id="node1" class="node"><title>terminator_block_1</title><ellipse fill="url(#g-terminator882na2ftc)" stroke="#C32F06" cx="108.5" cy="-926.2" rx="50.7503" ry="18"/><text text-anchor="start" x="73.5" y="-923.7" font-family="Open Sans, Noto Sans SC, Noto Sans TC, Noto Sans JP, Noto Sans KR" font-size="10.00" fill="white">H-MCU Startup</text></g><!-- process_block_2 --><g id="node2" class="node"><title>process_block_2</title><polygon fill="url(#g-process882na2ftc)" stroke="#3f51b5" points="179,-886.2 38,-886.2 38,-850.2 179,-850.2 179,-886.2"/><text text-anchor="start" x="64.5" y="-871.2" font-family="Open Sans, Noto Sans SC, Noto Sans TC, Noto Sans JP, Noto Sans KR" font-size="10.00" fill="white">Defineer variablen.</text><text text-anchor="start" x="45" y="-860.2" font-family="Open Sans, Noto Sans SC, Noto Sans TC, Noto Sans JP, Noto Sans KR" font-size="10.00" fill="white">Start Seriële communicatie.</text></g><!-- terminator_block_1&#45;&gt;process_block_2 --><g id="edge1" class="edge"><title>terminator_block_1->process_block_2</title><path fill="none" stroke="#000000" d="M108.5,-908.166C108.5,-904.492 108.5,-900.542 108.5,-896.606"/><polygon fill="#000000" stroke="#000000" points="112,-896.422 108.5,-886.422 105,-896.422 112,-896.422"/></g><!-- nop_block_3 --><g id="node3" class="node"><title>nop_block_3</title><ellipse fill="#000000" stroke="#000000" cx="108.5" cy="-826.4" rx="1.8" ry="1.8"/><text text-anchor="start" x="104.7" y="-832.2" font-family="Open Sans, Noto Sans SC, Noto Sans TC, Noto Sans JP, Noto Sans KR" font-weight="bold" font-size="10.00" fill="#000000"> </text></g><!-- process_block_2&#45;&gt;nop_block_3 --><g id="edge2" class="edge"><title>process_block_2->nop_block_3</title><path fill="none" stroke="#000000" d="M108.5,-849.744C108.5,-841.346 108.5,-832.414 108.5,-828.473"/></g><!-- ifs_block_4 --><g id="node4" class="node"><title>ifs_block_4</title><polygon fill="url(#g-decision882na2ftc)" stroke="#d1461b" points="180.5,-802.6 70.7212,-784.6 180.5,-766.6 290.279,-784.6 180.5,-802.6"/><text text-anchor="start" x="122.5" y="-782.1" font-family="Open Sans, Noto Sans SC, Noto Sans TC, Noto Sans JP, Noto Sans KR" font-size="10.00" fill="white">Verbonden met internet?</text></g><!-- nop_block_3&#45;&gt;ifs_block_4 --><g id="edge4" class="edge"><title>nop_block_3->ifs_block_4</title><path fill="none" stroke="#000000" d="M110.28,-825.367C115.566,-822.298 131.772,-812.89 147.284,-803.884"/><polygon fill="#000000" stroke="#000000" points="149.359,-806.726 156.25,-798.679 145.844,-800.673 149.359,-806.726"/></g><!-- process_block_5 --><g id="node5" class="node"><title>process_block_5</title><polygon fill="url(#g-process882na2ftc)" stroke="#3f51b5" points="97,-744.6 7.10543e-15,-744.6 7.10543e-15,-708.6 97,-708.6 97,-744.6"/><text text-anchor="start" x="14.5" y="-729.6" font-family="Open Sans, Noto Sans SC, Noto Sans TC, Noto Sans JP, Noto Sans KR" font-size="10.00" fill="white">Wacht even en</text><text text-anchor="start" x="7" y="-718.6" font-family="Open Sans, Noto Sans SC, Noto Sans TC, Noto Sans JP, Noto Sans KR" font-size="10.00" fill="white">probeer opnieuw.</text></g><!-- ifs_block_4&#45;&gt;process_block_5 --><g id="edge3" class="edge"><title>ifs_block_4->process_block_5</title><path fill="none" stroke="#000000" d="M150.547,-771.439C135.401,-764.784 116.6,-756.523 99.2793,-748.912"/><polygon fill="#000000" stroke="#000000" points="100.404,-745.584 89.8413,-744.765 97.5885,-751.992 100.404,-745.584"/><text text-anchor="start" x="94.9486" y="-750.994" font-family="Open Sans, Noto Sans SC, Noto Sans TC, Noto Sans JP, Noto Sans KR" font-weight="bold" font-size="10.00" fill="#000000"> Nee </text></g><!-- process_block_6 --><g id="node6" class="node"><title>process_block_6</title><polygon fill="url(#g-process882na2ftc)" stroke="#3f51b5" points="229.5,-744.6 131.5,-744.6 131.5,-708.6 229.5,-708.6 229.5,-744.6"/><text text-anchor="start" x="138.5" y="-725.1" font-family="Open Sans, Noto Sans SC, Noto Sans TC, Noto Sans JP, Noto Sans KR" font-size="10.00" fill="white">Start </text><text text-anchor="start" x="162.5" y="-725.1" font-family="Noto Mono" font-size="10.00" fill="white">HTTPClient</text></g><!-- ifs_block_4&#45;&gt;process_block_6 --><g id="edge6" class="edge"><title>ifs_block_4->process_block_6</title><path fill="none" stroke="#000000" d="M180.5,-766.566C180.5,-762.892 180.5,-758.942 180.5,-755.006"/><polygon fill="#000000" stroke="#000000" points="184,-754.822 180.5,-744.822 177,-754.822 184,-754.822"/><text text-anchor="start" x="166.5" y="-759.744" font-family="Open Sans, Noto Sans SC, Noto Sans TC, Noto Sans JP, Noto Sans KR" font-weight="bold" font-size="10.00" fill="#000000"> Ja </text></g><!-- process_block_5&#45;&gt;nop_block_3 --><g id="edge5" class="edge"><title>process_block_5->nop_block_3</title><path fill="none" stroke="#000000" d="M46.606,-744.644C45.8271,-761.261 47.2271,-785.809 59.5,-802.6 68.4206,-814.804 85.3046,-821.047 96.7297,-824.015"/><polygon fill="#000000" stroke="#000000" points="96.084,-827.455 106.594,-826.117 97.5432,-820.609 96.084,-827.455"/></g><!-- ifs_block_7 --><g id="node7" class="node"><title>ifs_block_7</title><polygon fill="url(#g-decision882na2ftc)" stroke="#d1461b" points="180.5,-686.6 76.3762,-668.6 180.5,-650.6 284.624,-668.6 180.5,-686.6"/><text text-anchor="start" x="126" y="-666.1" font-family="Open Sans, Noto Sans SC, Noto Sans TC, Noto Sans JP, Noto Sans KR" font-size="10.00" fill="white">Is er een HTTP request?</text></g><!-- process_block_6&#45;&gt;ifs_block_7 --><g id="edge7" class="edge"><title>process_block_6->ifs_block_7</title><path fill="none" stroke="#000000" d="M180.5,-708.566C180.5,-704.892 180.5,-700.942 180.5,-697.006"/><polygon fill="#000000" stroke="#000000" points="184,-696.822 180.5,-686.822 177,-696.822 184,-696.822"/></g><!-- ifs_block_7&#45;&gt;ifs_block_7 --><g id="edge29" class="edge"><title>ifs_block_7->ifs_block_7</title><path fill="none" stroke="#000000" d="M229.998,-678.101C267.96,-681.594 306.562,-678.427 306.562,-668.6 306.562,-659.656 274.584,-656.229 240.217,-658.319"/><polygon fill="#000000" stroke="#000000" points="239.703,-654.848 229.998,-659.099 240.236,-661.828 239.703,-654.848"/><text text-anchor="start" x="205.221" y="-682.121" font-family="Open Sans, Noto Sans SC, Noto Sans TC, Noto Sans JP, Noto Sans KR" font-weight="bold" font-size="10.00" fill="#000000"> Nee </text></g><!-- switch_block_8 --><g id="node8" class="node"><title>switch_block_8</title><polygon fill="url(#g-decision882na2ftc)" stroke="#d1461b" points="468.5,-620.6 360.051,-602.6 468.5,-584.6 576.949,-602.6 468.5,-620.6"/><text text-anchor="start" x="411.5" y="-600.1" font-family="Open Sans, Noto Sans SC, Noto Sans TC, Noto Sans JP, Noto Sans KR" font-size="10.00" fill="white">Wat wordt er gerequest?</text></g><!-- ifs_block_7&#45;&gt;switch_block_8 --><g id="edge8" class="edge"><title>ifs_block_7->switch_block_8</title><path fill="none" stroke="#000000" d="M225.5,-658.288C276.137,-646.683 358.431,-627.824 413.011,-615.316"/><polygon fill="#000000" stroke="#000000" points="413.9,-618.703 422.866,-613.058 412.336,-611.88 413.9,-618.703"/><text text-anchor="start" x="310.5" y="-639.6" font-family="Open Sans, Noto Sans SC, Noto Sans TC, Noto Sans JP, Noto Sans KR" font-weight="bold" font-size="10.00" fill="#000000"> Ja </text></g><!-- ifs_block_9 --><g id="node9" class="node"><title>ifs_block_9</title><polygon fill="url(#g-decision882na2ftc)" stroke="#d1461b" points="345.5,-554.6 253.851,-536.6 345.5,-518.6 437.149,-536.6 345.5,-554.6"/><text text-anchor="start" x="298.5" y="-534.1" font-family="Open Sans, Noto Sans SC, Noto Sans TC, Noto Sans JP, Noto Sans KR" font-size="10.00" fill="white">Is de request geldig?</text></g><!-- switch_block_8&#45;&gt;ifs_block_9 --><g id="edge9" class="edge"><title>switch_block_8->ifs_block_9</title><path fill="none" stroke="#000000" d="M442.715,-588.764C424.266,-578.865 399.256,-565.445 379.223,-554.695"/><polygon fill="#000000" stroke="#000000" points="380.877,-551.611 370.411,-549.967 377.567,-557.779 380.877,-551.611"/><text text-anchor="start" x="359.888" y="-573.54" font-family="Open Sans, Noto Sans SC, Noto Sans TC, Noto Sans JP, Noto Sans KR" font-weight="bold" font-size="10.00" fill="#000000"> "Control </text></g><!-- process_block_22 --><g id="node22" class="node"><title>process_block_22</title><polygon fill="url(#g-process882na2ftc)" stroke="#3f51b5" points="731,-554.6 614,-554.6 614,-518.6 731,-518.6 731,-554.6"/><text text-anchor="start" x="621" y="-535.1" font-family="Open Sans, Noto Sans SC, Noto Sans TC, Noto Sans JP, Noto Sans KR" font-size="10.00" fill="white">Geeft de </text><text text-anchor="start" x="663" y="-535.1" font-family="Open Sans, Noto Sans SC, Noto Sans TC, Noto Sans JP, Noto Sans KR" font-weight="bold" font-size="10.00" fill="white">status</text><text text-anchor="start" x="694" y="-535.1" font-family="Open Sans, Noto Sans SC, Noto Sans TC, Noto Sans JP, Noto Sans KR" font-size="10.00" fill="white"> terug.</text></g><!-- switch_block_8&#45;&gt;process_block_22 --><g id="edge26" class="edge"><title>switch_block_8->process_block_22</title><path fill="none" stroke="#000000" d="M505.443,-590.648C533.659,-581.519 573.274,-568.703 606.845,-557.841"/><polygon fill="#000000" stroke="#000000" points="608.157,-561.096 616.594,-554.687 606.002,-554.436 608.157,-561.096"/><text text-anchor="start" x="498.189" y="-576.612" font-family="Open Sans, Noto Sans SC, Noto Sans TC, Noto Sans JP, Noto Sans KR" font-weight="bold" font-size="10.00" fill="#000000"> "GetStatus" </text></g><!-- ifs_block_9&#45;&gt;ifs_block_7 --><g id="edge10" class="edge"><title>ifs_block_9->ifs_block_7</title><path fill="none" stroke="#000000" d="M296.224,-545.052C260.575,-552.138 216.479,-563.231 203.5,-576.6 187.169,-593.422 181.89,-619.997 180.42,-640.269"/><polygon fill="#000000" stroke="#000000" points="176.913,-640.347 179.955,-650.496 183.906,-640.665 176.913,-640.347"/><text text-anchor="start" x="178.488" y="-580.612" font-family="Open Sans, Noto Sans SC, Noto Sans TC, Noto Sans JP, Noto Sans KR" font-weight="bold" font-size="10.00" fill="#000000"> Nee </text></g><!-- process_block_10 --><g id="node10" class="node"><title>process_block_10</title><polygon fill="url(#g-process882na2ftc)" stroke="#3f51b5" points="470.5,-496.6 290.5,-496.6 290.5,-460.6 470.5,-460.6 470.5,-496.6"/><text text-anchor="start" x="297.5" y="-477.1" font-family="Open Sans, Noto Sans SC, Noto Sans TC, Noto Sans JP, Noto Sans KR" font-size="10.00" fill="white">Verkrijg </text><text text-anchor="start" x="335.5" y="-477.1" font-family="Open Sans, Noto Sans SC, Noto Sans TC, Noto Sans JP, Noto Sans KR" font-weight="bold" font-size="10.00" fill="white">module naam</text><text text-anchor="start" x="403.5" y="-477.1" font-family="Open Sans, Noto Sans SC, Noto Sans TC, Noto Sans JP, Noto Sans KR" font-size="10.00" fill="white"> van request.</text></g><!-- ifs_block_9&#45;&gt;process_block_10 --><g id="edge11" class="edge"><title>ifs_block_9->process_block_10</title><path fill="none" stroke="#000000" d="M355.249,-520.444C358.031,-515.835 361.139,-510.684 364.199,-505.614"/><polygon fill="#000000" stroke="#000000" points="367.401,-507.081 369.571,-496.711 361.408,-503.464 367.401,-507.081"/><text text-anchor="start" x="348.475" y="-501.47" font-family="Open Sans, Noto Sans SC, Noto Sans TC, Noto Sans JP, Noto Sans KR" font-weight="bold" font-size="10.00" fill="#000000"> Ja </text></g><!-- process_block_11 --><g id="node11" class="node"><title>process_block_11</title><polygon fill="url(#g-process882na2ftc)" stroke="#3f51b5" points="475.5,-436.1 341.5,-436.1 341.5,-400.1 475.5,-400.1 475.5,-436.1"/><text text-anchor="start" x="348.5" y="-416.6" font-family="Open Sans, Noto Sans SC, Noto Sans TC, Noto Sans JP, Noto Sans KR" font-size="10.00" fill="white">Verkrijg </text><text text-anchor="start" x="386.5" y="-416.6" font-family="Open Sans, Noto Sans SC, Noto Sans TC, Noto Sans JP, Noto Sans KR" font-weight="bold" font-size="10.00" fill="white">data</text><text text-anchor="start" x="408.5" y="-416.6" font-family="Open Sans, Noto Sans SC, Noto Sans TC, Noto Sans JP, Noto Sans KR" font-size="10.00" fill="white"> van request.</text></g><!-- process_block_10&#45;&gt;process_block_11 --><g id="edge12" class="edge"><title>process_block_10->process_block_11</title><path fill="none" stroke="#000000" d="M388.901,-460.448C391.06,-455.782 393.433,-450.656 395.758,-445.631"/><polygon fill="#000000" stroke="#000000" points="399.081,-446.784 400.105,-436.239 392.729,-443.844 399.081,-446.784"/></g><!-- process_block_12 --><g id="node12" class="node"><title>process_block_12</title><polygon fill="url(#g-process882na2ftc)" stroke="#3f51b5" points="496,-375.6 321,-375.6 321,-339.6 496,-339.6 496,-375.6"/><text text-anchor="start" x="328" y="-356.1" font-family="Open Sans, Noto Sans SC, Noto Sans TC, Noto Sans JP, Noto Sans KR" font-size="10.00" fill="white">Verkrijg </text><text text-anchor="start" x="366" y="-356.1" font-family="Open Sans, Noto Sans SC, Noto Sans TC, Noto Sans JP, Noto Sans KR" font-weight="bold" font-size="10.00" fill="white">adres</text><text text-anchor="start" x="393" y="-356.1" font-family="Open Sans, Noto Sans SC, Noto Sans TC, Noto Sans JP, Noto Sans KR" font-size="10.00" fill="white"> voor </text><text text-anchor="start" x="419" y="-356.1" font-family="Open Sans, Noto Sans SC, Noto Sans TC, Noto Sans JP, Noto Sans KR" font-weight="bold" font-size="10.00" fill="white">module naam</text><text text-anchor="start" x="487" y="-356.1" font-family="Open Sans, Noto Sans SC, Noto Sans TC, Noto Sans JP, Noto Sans KR" font-size="10.00" fill="white">.</text></g><!-- process_block_11&#45;&gt;process_block_12 --><g id="edge13" class="edge"><title>process_block_11->process_block_12</title><path fill="none" stroke="#000000" d="M408.5,-399.948C408.5,-395.521 408.5,-390.68 408.5,-385.905"/><polygon fill="#000000" stroke="#000000" points="412,-385.739 408.5,-375.739 405,-385.739 412,-385.739"/></g><!-- process_block_13 --><g id="node13" class="node"><title>process_block_13</title><polygon fill="url(#g-process882na2ftc)" stroke="#3f51b5" points="469.5,-317.6 351.5,-317.6 351.5,-281.6 469.5,-281.6 469.5,-317.6"/><text text-anchor="start" x="358.5" y="-298.1" font-family="Open Sans, Noto Sans SC, Noto Sans TC, Noto Sans JP, Noto Sans KR" font-size="10.00" fill="white">Stuur </text><text text-anchor="start" x="385.5" y="-298.1" font-family="Open Sans, Noto Sans SC, Noto Sans TC, Noto Sans JP, Noto Sans KR" font-weight="bold" font-size="10.00" fill="white">data</text><text text-anchor="start" x="407.5" y="-298.1" font-family="Open Sans, Noto Sans SC, Noto Sans TC, Noto Sans JP, Noto Sans KR" font-size="10.00" fill="white"> naar </text><text text-anchor="start" x="433.5" y="-298.1" font-family="Open Sans, Noto Sans SC, Noto Sans TC, Noto Sans JP, Noto Sans KR" font-weight="bold" font-size="10.00" fill="white">adres</text><text text-anchor="start" x="460.5" y="-298.1" font-family="Open Sans, Noto Sans SC, Noto Sans TC, Noto Sans JP, Noto Sans KR" font-size="10.00" fill="white">.</text></g><!-- process_block_12&#45;&gt;process_block_13 --><g id="edge14" class="edge"><title>process_block_12->process_block_13</title><path fill="none" stroke="#000000" d="M409.122,-339.566C409.249,-335.892 409.385,-331.942 409.52,-328.006"/><polygon fill="#000000" stroke="#000000" points="413.025,-327.937 409.872,-317.822 406.029,-327.696 413.025,-327.937"/></g><!-- nop_block_14 --><g id="node14" class="node"><title>nop_block_14</title><ellipse fill="#000000" stroke="#000000" cx="410.5" cy="-257.8" rx="1.8" ry="1.8"/><text text-anchor="start" x="406.7" y="-263.6" font-family="Open Sans, Noto Sans SC, Noto Sans TC, Noto Sans JP, Noto Sans KR" font-weight="bold" font-size="10.00" fill="#000000"> </text></g><!-- process_block_13&#45;&gt;nop_block_14 --><g id="edge15" class="edge"><title>process_block_13->nop_block_14</title><path fill="none" stroke="#000000" d="M410.5,-281.144C410.5,-272.746 410.5,-263.814 410.5,-259.873"/></g><!-- ifs_block_15 --><g id="node15" class="node"><title>ifs_block_15</title><polygon fill="url(#g-decision882na2ftc)" stroke="#d1461b" points="292.5,-234 203.346,-216 292.5,-198 381.654,-216 292.5,-234"/><text text-anchor="start" x="247" y="-213.5" font-family="Open Sans, Noto Sans SC, Noto Sans TC, Noto Sans JP, Noto Sans KR" font-size="10.00" fill="white">Is er een antwoord?</text></g><!-- nop_block_14&#45;&gt;ifs_block_15 --><g id="edge23" class="edge"><title>nop_block_14->ifs_block_15</title><path fill="none" stroke="#000000" d="M408.452,-257.074C399.653,-253.958 364.175,-241.39 334.754,-230.968"/><polygon fill="#000000" stroke="#000000" points="335.651,-227.573 325.056,-227.533 333.314,-234.171 335.651,-227.573"/></g><!-- ifs_block_16 --><g id="node16" class="node"><title>ifs_block_16</title><polygon fill="url(#g-decision882na2ftc)" stroke="#d1461b" points="299.5,-176 217.166,-158 299.5,-140 381.834,-158 299.5,-176"/><text text-anchor="start" x="258" y="-155.5" font-family="Open Sans, Noto Sans SC, Noto Sans TC, Noto Sans JP, Noto Sans KR" font-size="10.00" fill="white">Duurt het te lang?</text></g><!-- ifs_block_15&#45;&gt;ifs_block_16 --><g id="edge16" class="edge"><title>ifs_block_15->ifs_block_16</title><path fill="none" stroke="#000000" d="M294.638,-198.283C295.113,-194.348 295.628,-190.084 296.138,-185.853"/><polygon fill="#000000" stroke="#000000" points="299.651,-185.956 297.375,-175.609 292.702,-185.117 299.651,-185.956"/><text text-anchor="start" x="271.043" y="-190.647" font-family="Open Sans, Noto Sans SC, Noto Sans TC, Noto Sans JP, Noto Sans KR" font-weight="bold" font-size="10.00" fill="#000000"> Nee </text></g><!-- process_block_21 --><g id="node21" class="node"><title>process_block_21</title><polygon fill="url(#g-process882na2ftc)" stroke="#3f51b5" points="195.5,-176 73.5,-176 73.5,-140 195.5,-140 195.5,-176"/><text text-anchor="start" x="80.5" y="-156.5" font-family="Open Sans, Noto Sans SC, Noto Sans TC, Noto Sans JP, Noto Sans KR" font-size="10.00" fill="white">Zet </text><text text-anchor="start" x="97.5" y="-156.5" font-family="Open Sans, Noto Sans SC, Noto Sans TC, Noto Sans JP, Noto Sans KR" font-weight="bold" font-size="10.00" fill="white">status</text><text text-anchor="start" x="128.5" y="-156.5" font-family="Open Sans, Noto Sans SC, Noto Sans TC, Noto Sans JP, Noto Sans KR" font-size="10.00" fill="white"> op </text><text text-anchor="start" x="145.5" y="-156.5" font-family="Open Sans, Noto Sans SC, Noto Sans TC, Noto Sans JP, Noto Sans KR" font-style="italic" font-size="10.00" fill="white">Succesvol</text><text text-anchor="start" x="186.5" y="-156.5" font-family="Open Sans, Noto Sans SC, Noto Sans TC, Noto Sans JP, Noto Sans KR" font-size="10.00" fill="white">.</text></g><!-- ifs_block_15&#45;&gt;process_block_21 --><g id="edge25" class="edge"><title>ifs_block_15->process_block_21</title><path fill="none" stroke="#000000" d="M260.526,-204.263C241.196,-197.167 215.959,-187.903 193.15,-179.53"/><polygon fill="#000000" stroke="#000000" points="194.142,-176.166 183.548,-176.005 191.73,-182.737 194.142,-176.166"/><text text-anchor="start" x="208.14" y="-183.172" font-family="Open Sans, Noto Sans SC, Noto Sans TC, Noto Sans JP, Noto Sans KR" font-weight="bold" font-size="10.00" fill="#000000"> Ja </text></g><!-- ifs_block_17 --><g id="node17" class="node"><title>ifs_block_17</title><polygon fill="url(#g-decision882na2ftc)" stroke="#d1461b" points="226.5,-118 101.5,-88 226.5,-58 351.5,-88 226.5,-118"/><text text-anchor="start" x="172" y="-91" font-family="Open Sans, Noto Sans SC, Noto Sans TC, Noto Sans JP, Noto Sans KR" font-size="10.00" fill="white">Lukt het na 5 pogingen </text><text text-anchor="start" x="193" y="-80" font-family="Open Sans, Noto Sans SC, Noto Sans TC, Noto Sans JP, Noto Sans KR" font-size="10.00" fill="white">nog altijd niet?</text></g><!-- ifs_block_16&#45;&gt;ifs_block_17 --><g id="edge17" class="edge"><title>ifs_block_16->ifs_block_17</title><path fill="none" stroke="#000000" d="M284.019,-143.155C276.768,-136.202 267.838,-127.639 259.196,-119.352"/><polygon fill="#000000" stroke="#000000" points="261.365,-116.583 251.725,-112.188 256.52,-121.636 261.365,-116.583"/><text text-anchor="start" x="253.726" y="-131.532" font-family="Open Sans, Noto Sans SC, Noto Sans TC, Noto Sans JP, Noto Sans KR" font-weight="bold" font-size="10.00" fill="#000000"> Ja </text></g><!-- process_block_20 --><g id="node20" class="node"><title>process_block_20</title><polygon fill="url(#g-process882na2ftc)" stroke="#3f51b5" points="427.5,-106 373.5,-106 373.5,-70 427.5,-70 427.5,-106"/><text text-anchor="start" x="382" y="-85.5" font-family="Open Sans, Noto Sans SC, Noto Sans TC, Noto Sans JP, Noto Sans KR" font-size="10.00" fill="white">Wacht...</text></g><!-- ifs_block_16&#45;&gt;process_block_20 --><g id="edge22" class="edge"><title>ifs_block_16->process_block_20</title><path fill="none" stroke="#000000" d="M321.731,-144.658C333.961,-137.126 349.291,-127.37 362.5,-118 364.942,-116.267 367.441,-114.436 369.932,-112.567"/><polygon fill="#000000" stroke="#000000" points="372.484,-115.021 378.286,-106.156 368.222,-109.468 372.484,-115.021"/><text text-anchor="start" x="325.312" y="-130.379" font-family="Open Sans, Noto Sans SC, Noto Sans TC, Noto Sans JP, Noto Sans KR" font-weight="bold" font-size="10.00" fill="#000000"> Nee </text></g><!-- process_block_18 --><g id="node18" class="node"><title>process_block_18</title><polygon fill="url(#g-process882na2ftc)" stroke="#3f51b5" points="202.5,-36 90.5,-36 90.5,-0 202.5,-0 202.5,-36"/><text text-anchor="start" x="97.5" y="-16.5" font-family="Open Sans, Noto Sans SC, Noto Sans TC, Noto Sans JP, Noto Sans KR" font-size="10.00" fill="white">Zet </text><text text-anchor="start" x="114.5" y="-16.5" font-family="Open Sans, Noto Sans SC, Noto Sans TC, Noto Sans JP, Noto Sans KR" font-weight="bold" font-size="10.00" fill="white">status</text><text text-anchor="start" x="145.5" y="-16.5" font-family="Open Sans, Noto Sans SC, Noto Sans TC, Noto Sans JP, Noto Sans KR" font-size="10.00" fill="white"> op </text><text text-anchor="start" x="162.5" y="-16.5" font-family="Open Sans, Noto Sans SC, Noto Sans TC, Noto Sans JP, Noto Sans KR" font-style="italic" font-size="10.00" fill="white">Mislukt</text><text text-anchor="start" x="193.5" y="-16.5" font-family="Open Sans, Noto Sans SC, Noto Sans TC, Noto Sans JP, Noto Sans KR" font-size="10.00" fill="white">.</text></g><!-- ifs_block_17&#45;&gt;process_block_18 --><g id="edge18" class="edge"><title>ifs_block_17->process_block_18</title><path fill="none" stroke="#000000" d="M199.416,-64.3012C191.528,-57.3998 182.891,-49.8417 174.923,-42.8703"/><polygon fill="#000000" stroke="#000000" points="177.063,-40.0916 167.232,-36.1406 172.453,-45.3597 177.063,-40.0916"/><text text-anchor="start" x="169.319" y="-43.217" font-family="Open Sans, Noto Sans SC, Noto Sans TC, Noto Sans JP, Noto Sans KR" font-weight="bold" font-size="10.00" fill="#000000"> Ja </text></g><!-- process_block_19 --><g id="node19" class="node"><title>process_block_19</title><polygon fill="url(#g-process882na2ftc)" stroke="#3f51b5" points="362,-36 251,-36 251,-0 362,-0 362,-36"/><text text-anchor="start" x="272.5" y="-21" font-family="Open Sans, Noto Sans SC, Noto Sans TC, Noto Sans JP, Noto Sans KR" font-size="10.00" fill="white">We sturen het </text><text text-anchor="start" x="258" y="-10" font-family="Open Sans, Noto Sans SC, Noto Sans TC, Noto Sans JP, Noto Sans KR" font-size="10.00" fill="white">datapakket opnieuw.</text></g><!-- ifs_block_17&#45;&gt;process_block_19 --><g id="edge20" class="edge"><title>ifs_block_17->process_block_19</title><path fill="none" stroke="#000000" d="M253.584,-64.3012C261.472,-57.3998 270.109,-49.8417 278.077,-42.8703"/><polygon fill="#000000" stroke="#000000" points="280.547,-45.3597 285.768,-36.1406 275.937,-40.0916 280.547,-45.3597"/><text text-anchor="start" x="244.681" y="-43.217" font-family="Open Sans, Noto Sans SC, Noto Sans TC, Noto Sans JP, Noto Sans KR" font-weight="bold" font-size="10.00" fill="#000000"> Nee </text></g><!-- process_block_18&#45;&gt;ifs_block_7 --><g id="edge19" class="edge"><title>process_block_18->ifs_block_7</title><path fill="none" stroke="#000000" d="M115.541,-36.1642C106.723,-42.327 97.5959,-49.7625 90.5,-58 57.9386,-95.8001 39.5,-108.109 39.5,-158 39.5,-536.6 39.5,-536.6 39.5,-536.6 39.5,-592.09 98.4187,-630.998 140.083,-651.575"/><polygon fill="#000000" stroke="#000000" points="138.675,-654.781 149.208,-655.928 141.689,-648.463 138.675,-654.781"/></g><!-- process_block_19&#45;&gt;process_block_13 --><g id="edge21" class="edge"><title>process_block_19->process_block_13</title><path fill="none" stroke="#000000" d="M362.168,-29.016C393.217,-36.2544 427.753,-46.4942 438.5,-58 469.63,-91.3277 461.5,-112.395 461.5,-158 461.5,-216 461.5,-216 461.5,-216 461.5,-237.717 448.803,-258.575 436.079,-274.025"/><polygon fill="#000000" stroke="#000000" points="433.421,-271.748 429.491,-281.587 438.699,-276.347 433.421,-271.748"/></g><!-- process_block_20&#45;&gt;nop_block_14 --><g id="edge24" class="edge"><title>process_block_20->nop_block_14</title><path fill="none" stroke="#000000" d="M401.571,-106.192C403.624,-141.051 408.062,-216.401 409.79,-245.752"/><polygon fill="#000000" stroke="#000000" points="406.306,-246.116 410.388,-255.893 413.294,-245.705 406.306,-246.116"/></g><!-- process_block_21&#45;&gt;ifs_block_7 --><g id="edge27" class="edge"><title>process_block_21->ifs_block_7</title><path fill="none" stroke="#000000" d="M134.5,-176.029C134.5,-196.016 134.5,-229.211 134.5,-257.8 134.5,-536.6 134.5,-536.6 134.5,-536.6 134.5,-575.335 152.381,-617.08 165.847,-643.025"/><polygon fill="#000000" stroke="#000000" points="162.933,-644.998 170.745,-652.156 169.102,-641.689 162.933,-644.998"/></g><!-- process_block_22&#45;&gt;ifs_block_7 --><g id="edge28" class="edge"><title>process_block_22->ifs_block_7</title><path fill="none" stroke="#000000" d="M731.36,-553.522C741.732,-559.184 751.208,-566.685 757.5,-576.6 769.883,-596.113 773.267,-611.702 757.5,-628.6 741.423,-645.83 438.566,-659.303 278.231,-665.261"/><polygon fill="#000000" stroke="#000000" points="277.745,-661.776 267.881,-665.643 278.003,-668.772 277.745,-661.776"/></g><!-- comment_block_23 --><g id="node23" class="node"><title>comment_block_23</title><polygon fill="url(#g-comment882na2ftc)" stroke="#ffab40" points="332.5,-626.6 214.5,-626.6 214.5,-578.6 338.5,-578.6 338.5,-620.6 332.5,-626.6"/><polyline fill="white" stroke="#ffab40" points="332.5,-626.6 332.5,-620.6 " stroke-width="0"/><polyline fill="white" stroke="#ffab40" points="338.5,-620.6 332.5,-620.6 " stroke-width="0"/><text text-anchor="start" x="225" y="-615.6" font-family="Open Sans, Noto Sans SC, Noto Sans TC, Noto Sans JP, Noto Sans KR" font-size="10.00" fill="black">  Een geldige "Control"</text><text text-anchor="start" x="226" y="-605.6" font-family="Open Sans, Noto Sans SC, Noto Sans TC, Noto Sans JP, Noto Sans KR" font-size="10.00" fill="black">  request bestaat uit 2</text><text text-anchor="start" x="218.5" y="-595.6" font-family="Open Sans, Noto Sans SC, Noto Sans TC, Noto Sans JP, Noto Sans KR" font-size="10.00" fill="black">  velden: </text><text text-anchor="start" x="259.5" y="-595.6" font-family="Open Sans, Noto Sans SC, Noto Sans TC, Noto Sans JP, Noto Sans KR" font-weight="bold" font-size="10.00" fill="black">data</text><text text-anchor="start" x="281.5" y="-595.6" font-family="Open Sans, Noto Sans SC, Noto Sans TC, Noto Sans JP, Noto Sans KR" font-size="10.00" fill="black"> en </text><text text-anchor="start" x="297.5" y="-595.6" font-family="Open Sans, Noto Sans SC, Noto Sans TC, Noto Sans JP, Noto Sans KR" font-weight="bold" font-size="10.00" fill="black">module</text><text text-anchor="start" x="259" y="-585.6" font-family="Open Sans, Noto Sans SC, Noto Sans TC, Noto Sans JP, Noto Sans KR" font-weight="bold" font-size="10.00" fill="black">  naam</text><text text-anchor="start" x="292" y="-585.6" font-family="Open Sans, Noto Sans SC, Noto Sans TC, Noto Sans JP, Noto Sans KR" font-size="10.00" fill="black">.</text></g><!-- comment_block_23&#45;&gt;ifs_block_9 --><g id="edge30" class="edge"><title>comment_block_23->ifs_block_9</title><path fill="none" stroke="#000000" stroke-dasharray="5,2" d="M301.801,-578.399C311.186,-569.422 321.55,-559.508 329.829,-551.589"/></g><!-- comment_block_24 --><g id="node24" class="node"><title>comment_block_24</title><polygon fill="url(#g-comment882na2ftc)" stroke="#ffab40" points="313,-438.6 172,-438.6 172,-397.6 319,-397.6 319,-432.6 313,-438.6"/><polyline fill="white" stroke="#ffab40" points="313,-438.6 313,-432.6 " stroke-width="0"/><polyline fill="white" stroke="#ffab40" points="319,-432.6 313,-432.6 " stroke-width="0"/><text text-anchor="start" x="185.5" y="-426.6" font-family="Open Sans, Noto Sans SC, Noto Sans TC, Noto Sans JP, Noto Sans KR" font-size="10.00" fill="black">  Elke slave (of H-CU) krijgt</text><text text-anchor="start" x="176" y="-415.6" font-family="Open Sans, Noto Sans SC, Noto Sans TC, Noto Sans JP, Noto Sans KR" font-size="10.00" fill="black">  een naam met hiernaast een</text><text text-anchor="start" x="229" y="-404.6" font-family="Open Sans, Noto Sans SC, Noto Sans TC, Noto Sans JP, Noto Sans KR" font-size="10.00" fill="black">  adres.</text></g><!-- comment_block_24&#45;&gt;process_block_12 --><g id="edge31" class="edge"><title>comment_block_24->process_block_12</title><path fill="none" stroke="#000000" stroke-dasharray="5,2" d="M301.139,-397.449C320.23,-390.363 341.433,-382.493 359.92,-375.631"/></g><!-- comment_block_25 --><g id="node25" class="node"><title>comment_block_25</title><polygon fill="url(#g-comment882na2ftc)" stroke="#ffab40" points="740.5,-628.6 598.5,-628.6 598.5,-576.6 746.5,-576.6 746.5,-622.6 740.5,-628.6"/><polyline fill="white" stroke="#ffab40" points="740.5,-628.6 740.5,-622.6 " stroke-width="0"/><polyline fill="white" stroke="#ffab40" points="746.5,-622.6 740.5,-622.6 " stroke-width="0"/><text text-anchor="start" x="603.5" y="-616.6" font-family="Open Sans, Noto Sans SC, Noto Sans TC, Noto Sans JP, Noto Sans KR" font-size="10.00" fill="black">  De status zal aangeven of de</text><text text-anchor="start" x="602.5" y="-605.6" font-family="Open Sans, Noto Sans SC, Noto Sans TC, Noto Sans JP, Noto Sans KR" font-size="10.00" fill="black">  vorige request succesvol was</text><text text-anchor="start" x="612" y="-594.6" font-family="Open Sans, Noto Sans SC, Noto Sans TC, Noto Sans JP, Noto Sans KR" font-size="10.00" fill="black">  of niet. Deze request kan</text><text text-anchor="start" x="629.5" y="-583.6" font-family="Open Sans, Noto Sans SC, Noto Sans TC, Noto Sans JP, Noto Sans KR" font-size="10.00" fill="black">  niet ongeldig zijn.</text></g><!-- comment_block_25&#45;&gt;process_block_22 --><g id="edge32" class="edge"><title>comment_block_25->process_block_22</title><path fill="none" stroke="#000000" stroke-dasharray="5,2" d="M672.5,-576.515C672.5,-569.309 672.5,-561.642 672.5,-554.974"/></g></g></svg>