<?xml version="1.0" encoding="UTF-8" standalone="no"?><!DOCTYPE svg PUBLIC "-//W3C//DTD SVG 1.1//EN" "http://www.w3.org/Graphics/SVG/1.1/DTD/svg11.dtd"><!-- Generated by graphviz version 2.39.20160930.0541 (20160930.0541) --><!-- Title: FlowChart Pages: 1 --><svg width="408pt" height="797pt" viewBox="0.00 0.00 408.27 797" xmlns="http://www.w3.org/2000/svg" xmlns:xlink="http://www.w3.org/1999/xlink"><defs><radialGradient id="g-terminatorwdosnqtti" cx="0.5" cy="0.5" fx="0.9" fy="0.9" r="1" x1="0%" x2="0%" y1="100%" y2="0%" spreadMethod="pad"><stop offset="0%" stop-color="#C32F06" stop-opacity="1"/><stop offset="100%" stop-color="#C32F06" stop-opacity="1"/></radialGradient><radialGradient id="g-decisionwdosnqtti" cx="0.5" cy="0.5" fx="0.9" fy="0.9" r="1" x1="0%" x2="0%" y1="100%" y2="0%" spreadMethod="pad"><stop offset="0%" stop-color="#d1461b" stop-opacity="1"/><stop offset="100%" stop-color="#d1461b" stop-opacity="1"/></radialGradient><radialGradient id="g-processwdosnqtti" cx="0.5" cy="0.5" fx="0.9" fy="0.9" r="1" x1="0%" x2="0%" y1="100%" y2="0%" spreadMethod="pad"><stop offset="0%" stop-color="#3f51b5" stop-opacity="1"/><stop offset="100%" stop-color="#3f51b5" stop-opacity="1"/></radialGradient><radialGradient id="g-defaultwdosnqtti" cx="0.5" cy="0.5" fx="0.9" fy="0.9" r="1" x1="0%" x2="0%" y1="100%" y2="0%" spreadMethod="pad"><stop offset="0%" stop-color="#005100" stop-opacity="1"/><stop offset="100%" stop-color="#005100" stop-opacity="1"/></radialGradient><radialGradient id="g-modulewdosnqtti" cx="0.5" cy="0.5" fx="0.9" fy="0.9" r="1" x1="0%" x2="0%" y1="100%" y2="0%" spreadMethod="pad"><stop offset="0%" stop-color="#009688" stop-opacity="1"/><stop offset="100%" stop-color="#009688" stop-opacity="1"/></radialGradient><radialGradient id="g-dataiowdosnqtti" cx="0.5" cy="0.5" fx="0.9" fy="0.9" r="1" x1="0%" x2="0%" y1="100%" y2="0%" spreadMethod="pad"><stop offset="0%" stop-color="#607d8b" stop-opacity="1"/><stop offset="100%" stop-color="#607d8b" stop-opacity="1"/></radialGradient><radialGradient id="g-preparationwdosnqtti" cx="0.5" cy="0.5" fx="0.9" fy="0.9" r="1" x1="0%" x2="0%" y1="100%" y2="0%" spreadMethod="pad"><stop offset="0%" stop-color="#607d8b" stop-opacity="1"/><stop offset="100%" stop-color="#607d8b" stop-opacity="1"/></radialGradient><radialGradient id="g-commentwdosnqtti" cx="0.5" cy="0.5" fx="0.9" fy="0.9" r="1" x1="0%" x2="0%" y1="100%" y2="0%" spreadMethod="pad"><stop offset="0%" stop-color="#ffab40" stop-opacity="1"/><stop offset="100%" stop-color="#ffab40" stop-opacity="1"/></radialGradient><radialGradient id="g-manualwdosnqtti" cx="0.5" cy="0.5" fx="0.9" fy="0.9" r="1" x1="0%" x2="0%" y1="100%" y2="0%" spreadMethod="pad"><stop offset="0%" stop-color="#673ab7" stop-opacity="1"/><stop offset="100%" stop-color="#673ab7" stop-opacity="1"/></radialGradient></defs><g id="page0,1_graph0" class="graph" transform="scale(0.792 0.792) rotate(0) translate(4 996)"><title>FlowChart</title><!-- terminator_block_1 --><g id="node1" class="node"><title>terminator_block_1</title><ellipse fill="url(#g-terminatorwdosnqtti)" stroke="#C32F06" cx="276.174" cy="-974" rx="45.1548" ry="18"/><text text-anchor="start" x="245.674" y="-971.5" font-family="Open Sans, Noto Sans SC, Noto Sans TC, Noto Sans JP, Noto Sans KR" font-size="10.00" fill="white">H-CU Startup</text></g><!-- process_block_2 --><g id="node2" class="node"><title>process_block_2</title><polygon fill="url(#g-processwdosnqtti)" stroke="#3f51b5" points="345.674,-934 206.674,-934 206.674,-898 345.674,-898 345.674,-934"/><text text-anchor="start" x="232.174" y="-919" font-family="Open Sans, Noto Sans SC, Noto Sans TC, Noto Sans JP, Noto Sans KR" font-size="10.00" fill="white">Defineer variablen.</text><text text-anchor="start" x="213.674" y="-908" font-family="Open Sans, Noto Sans SC, Noto Sans TC, Noto Sans JP, Noto Sans KR" font-size="10.00" fill="white">Start Seriële communicatie</text></g><!-- terminator_block_1&#45;&gt;process_block_2 --><g id="edge1" class="edge"><title>terminator_block_1->process_block_2</title><path fill="none" stroke="#000000" d="M276.174,-955.966C276.174,-952.292 276.174,-948.342 276.174,-944.406"/><polygon fill="#000000" stroke="#000000" points="279.674,-944.222 276.174,-934.222 272.674,-944.222 279.674,-944.222"/></g><!-- process_block_3 --><g id="node3" class="node"><title>process_block_3</title><polygon fill="url(#g-processwdosnqtti)" stroke="#3f51b5" points="326.174,-875 226.174,-875 226.174,-839 326.174,-839 326.174,-875"/><text text-anchor="start" x="233.174" y="-860" font-family="Open Sans, Noto Sans SC, Noto Sans TC, Noto Sans JP, Noto Sans KR" font-size="10.00" fill="white">Verkrijg een adres:</text><text text-anchor="start" x="248.674" y="-850" font-family="Open Sans, Noto Sans SC, Noto Sans TC, Noto Sans JP, Noto Sans KR" font-weight="bold" font-size="10.00" fill="white">Mijn adres.</text></g><!-- process_block_2&#45;&gt;process_block_3 --><g id="edge2" class="edge"><title>process_block_2->process_block_3</title><path fill="none" stroke="#000000" d="M276.174,-897.977C276.174,-894.049 276.174,-889.798 276.174,-885.572"/><polygon fill="#000000" stroke="#000000" points="279.674,-885.319 276.174,-875.319 272.674,-885.319 279.674,-885.319"/></g><!-- ifs_block_4 --><g id="node4" class="node"><title>ifs_block_4</title><polygon fill="url(#g-decisionwdosnqtti)" stroke="#d1461b" points="350.174,-816 221.174,-786 350.174,-756 479.174,-786 350.174,-816"/><text text-anchor="start" x="293.674" y="-789" font-family="Open Sans, Noto Sans SC, Noto Sans TC, Noto Sans JP, Noto Sans KR" font-size="10.00" fill="white">Zijn er minstens 4 bytes </text><text text-anchor="start" x="305.674" y="-778" font-family="Open Sans, Noto Sans SC, Noto Sans TC, Noto Sans JP, Noto Sans KR" font-size="10.00" fill="white">op de data stream?</text></g><!-- process_block_3&#45;&gt;ifs_block_4 --><g id="edge3" class="edge"><title>process_block_3->ifs_block_4</title><path fill="none" stroke="#000000" d="M295.231,-838.716C301.976,-832.244 309.77,-824.766 317.33,-817.513"/><polygon fill="#000000" stroke="#000000" points="319.971,-819.829 324.764,-810.38 315.125,-814.778 319.971,-819.829"/></g><!-- ifs_block_4&#45;&gt;ifs_block_4 --><g id="edge23" class="edge"><title>ifs_block_4->ifs_block_4</title><path fill="none" stroke="#000000" d="M425.148,-798.604C464.981,-800.695 501.174,-796.493 501.174,-786 501.174,-776.409 470.935,-772.074 435.316,-772.996"/><polygon fill="#000000" stroke="#000000" points="435.003,-769.506 425.148,-773.396 435.278,-776.5 435.003,-769.506"/><text text-anchor="start" x="400.381" y="-802.616" font-family="Open Sans, Noto Sans SC, Noto Sans TC, Noto Sans JP, Noto Sans KR" font-weight="bold" font-size="10.00" fill="#000000"> Nee </text></g><!-- process_block_5 --><g id="node5" class="node"><title>process_block_5</title><polygon fill="url(#g-processwdosnqtti)" stroke="#3f51b5" points="239.674,-734 128.674,-734 128.674,-698 239.674,-698 239.674,-734"/><text text-anchor="start" x="135.674" y="-713.5" font-family="Open Sans, Noto Sans SC, Noto Sans TC, Noto Sans JP, Noto Sans KR" font-size="10.00" fill="white">Er is data ontvangen.</text></g><!-- ifs_block_4&#45;&gt;process_block_5 --><g id="edge4" class="edge"><title>ifs_block_4->process_block_5</title><path fill="none" stroke="#000000" d="M303.934,-766.501C282.958,-757.656 258.058,-747.156 236.41,-738.027"/><polygon fill="#000000" stroke="#000000" points="237.61,-734.735 227.036,-734.074 234.89,-741.185 237.61,-734.735"/><text text-anchor="start" x="251.548" y="-743.314" font-family="Open Sans, Noto Sans SC, Noto Sans TC, Noto Sans JP, Noto Sans KR" font-weight="bold" font-size="10.00" fill="#000000"> Ja </text></g><!-- nop_block_6 --><g id="node6" class="node"><title>nop_block_6</title><ellipse fill="#000000" stroke="#000000" cx="169.174" cy="-658" rx="1.8" ry="1.8"/><text text-anchor="start" x="165.374" y="-663.8" font-family="Open Sans, Noto Sans SC, Noto Sans TC, Noto Sans JP, Noto Sans KR" font-weight="bold" font-size="10.00" fill="#000000"> </text></g><!-- process_block_5&#45;&gt;nop_block_6 --><g id="edge5" class="edge"><title>process_block_5->nop_block_6</title><path fill="none" stroke="#000000" d="M179.51,-697.966C175.864,-683.867 171.168,-665.711 169.662,-659.887"/></g><!-- ifs_block_7 --><g id="node7" class="node"><title>ifs_block_7</title><polygon fill="url(#g-decisionwdosnqtti)" stroke="#d1461b" points="205.174,-618 97.1741,-590 205.174,-562 313.174,-590 205.174,-618"/><text text-anchor="start" x="169.174" y="-593" font-family="Open Sans, Noto Sans SC, Noto Sans TC, Noto Sans JP, Noto Sans KR" font-size="10.00" fill="white">Is </text><text text-anchor="start" x="179.174" y="-593" font-family="Noto Mono" font-size="10.00" fill="white">start-byte</text><text text-anchor="start" x="239.174" y="-593" font-family="Open Sans, Noto Sans SC, Noto Sans TC, Noto Sans JP, Noto Sans KR" font-size="10.00" fill="white"> </text><text text-anchor="start" x="159.174" y="-583" font-family="Open Sans, Noto Sans SC, Noto Sans TC, Noto Sans JP, Noto Sans KR" font-size="10.00" fill="white">in de goede positie?</text></g><!-- nop_block_6&#45;&gt;ifs_block_7 --><g id="edge7" class="edge"><title>nop_block_6->ifs_block_7</title><path fill="none" stroke="#000000" d="M170.064,-656.319C172.569,-651.588 179.977,-637.594 187.347,-623.673"/><polygon fill="#000000" stroke="#000000" points="190.547,-625.109 192.133,-614.634 184.361,-621.834 190.547,-625.109"/></g><!-- process_block_8 --><g id="node8" class="node"><title>process_block_8</title><polygon fill="url(#g-processwdosnqtti)" stroke="#3f51b5" points="123.174,-540 25.1741,-540 25.1741,-496 123.174,-496 123.174,-540"/><text text-anchor="start" x="32.1741" y="-526" font-family="Noto Mono" font-size="10.00" fill="white">Serial.read();</text><text text-anchor="start" x="32.1741" y="-516" font-family="Open Sans, Noto Sans SC, Noto Sans TC, Noto Sans JP, Noto Sans KR" font-size="10.00" fill="white">Lees een </text><text text-anchor="start" x="75.1741" y="-516" font-family="Noto Mono" font-size="10.00" fill="white">byte</text><text text-anchor="start" x="99.1741" y="-516" font-family="Open Sans, Noto Sans SC, Noto Sans TC, Noto Sans JP, Noto Sans KR" font-size="10.00" fill="white"> uit </text><text text-anchor="start" x="37.6741" y="-506" font-family="Open Sans, Noto Sans SC, Noto Sans TC, Noto Sans JP, Noto Sans KR" font-size="10.00" fill="white">de data-stream.</text></g><!-- ifs_block_7&#45;&gt;process_block_8 --><g id="edge6" class="edge"><title>ifs_block_7->process_block_8</title><path fill="none" stroke="#000000" d="M170.412,-570.894C155.965,-562.954 138.938,-553.596 123.254,-544.975"/><polygon fill="#000000" stroke="#000000" points="124.654,-541.751 114.204,-540.001 121.282,-547.885 124.654,-541.751"/><text text-anchor="start" x="117.393" y="-548.494" font-family="Open Sans, Noto Sans SC, Noto Sans TC, Noto Sans JP, Noto Sans KR" font-weight="bold" font-size="10.00" fill="#000000"> Nee </text></g><!-- process_block_9 --><g id="node9" class="node"><title>process_block_9</title><polygon fill="url(#g-processwdosnqtti)" stroke="#3f51b5" points="248.174,-536 150.174,-536 150.174,-500 248.174,-500 248.174,-536"/><text text-anchor="start" x="157.174" y="-521" font-family="Noto Mono" font-size="10.00" fill="white">Serial.read();</text><text text-anchor="start" x="163.174" y="-511" font-family="Open Sans, Noto Sans SC, Noto Sans TC, Noto Sans JP, Noto Sans KR" font-size="10.00" fill="white">Lees </text><text text-anchor="start" x="186.174" y="-511" font-family="Open Sans, Noto Sans SC, Noto Sans TC, Noto Sans JP, Noto Sans KR" font-weight="bold" font-size="10.00" fill="white">start-byte</text></g><!-- ifs_block_7&#45;&gt;process_block_9 --><g id="edge9" class="edge"><title>ifs_block_7->process_block_9</title><path fill="none" stroke="#000000" d="M202.871,-562.369C202.44,-557.189 201.988,-551.764 201.554,-546.556"/><polygon fill="#000000" stroke="#000000" points="205.019,-545.995 200.701,-536.32 198.043,-546.576 205.019,-545.995"/><text text-anchor="start" x="187.8" y="-553.505" font-family="Open Sans, Noto Sans SC, Noto Sans TC, Noto Sans JP, Noto Sans KR" font-weight="bold" font-size="10.00" fill="#000000"> Ja </text></g><!-- process_block_8&#45;&gt;nop_block_6 --><g id="edge8" class="edge"><title>process_block_8->nop_block_6</title><path fill="none" stroke="#000000" d="M71.1076,-540.038C69.2851,-561.867 69.9054,-595.239 86.1741,-618 103.239,-641.875 138.475,-652.074 157.071,-655.936"/><polygon fill="#000000" stroke="#000000" points="156.715,-659.428 167.174,-657.734 157.941,-652.536 156.715,-659.428"/></g><!-- process_block_10 --><g id="node10" class="node"><title>process_block_10</title><polygon fill="url(#g-processwdosnqtti)" stroke="#3f51b5" points="238.174,-474 116.174,-474 116.174,-438 238.174,-438 238.174,-474"/><text text-anchor="start" x="135.174" y="-459" font-family="Noto Mono" font-size="10.00" fill="white">Serial.read();</text><text text-anchor="start" x="123.174" y="-449" font-family="Open Sans, Noto Sans SC, Noto Sans TC, Noto Sans JP, Noto Sans KR" font-size="10.00" fill="white">Lees </text><text text-anchor="start" x="146.174" y="-449" font-family="Open Sans, Noto Sans SC, Noto Sans TC, Noto Sans JP, Noto Sans KR" font-weight="bold" font-size="10.00" fill="white">adres van zender</text></g><!-- process_block_9&#45;&gt;process_block_10 --><g id="edge10" class="edge"><title>process_block_9->process_block_10</title><path fill="none" stroke="#000000" d="M192.692,-499.733C190.918,-494.733 188.954,-489.197 187.036,-483.792"/><polygon fill="#000000" stroke="#000000" points="190.328,-482.604 183.686,-474.35 183.731,-484.945 190.328,-482.604"/></g><!-- process_block_11 --><g id="node11" class="node"><title>process_block_11</title><polygon fill="url(#g-processwdosnqtti)" stroke="#3f51b5" points="235.674,-416 96.6741,-416 96.6741,-380 235.674,-380 235.674,-416"/><text text-anchor="start" x="124.174" y="-401" font-family="Noto Mono" font-size="10.00" fill="white">Serial.read();</text><text text-anchor="start" x="103.674" y="-391" font-family="Open Sans, Noto Sans SC, Noto Sans TC, Noto Sans JP, Noto Sans KR" font-size="10.00" fill="white">Lees </text><text text-anchor="start" x="126.674" y="-391" font-family="Open Sans, Noto Sans SC, Noto Sans TC, Noto Sans JP, Noto Sans KR" font-weight="bold" font-size="10.00" fill="white">adres van ontvanger</text></g><!-- process_block_10&#45;&gt;process_block_11 --><g id="edge11" class="edge"><title>process_block_10->process_block_11</title><path fill="none" stroke="#000000" d="M173.754,-437.966C173.037,-434.184 172.264,-430.109 171.496,-426.059"/><polygon fill="#000000" stroke="#000000" points="174.932,-425.395 169.63,-416.222 168.055,-426.699 174.932,-425.395"/></g><!-- process_block_12 --><g id="node12" class="node"><title>process_block_12</title><polygon fill="url(#g-processwdosnqtti)" stroke="#3f51b5" points="210.174,-358 112.174,-358 112.174,-322 210.174,-322 210.174,-358"/><text text-anchor="start" x="119.174" y="-343" font-family="Noto Mono" font-size="10.00" fill="white">Serial.read();</text><text text-anchor="start" x="138.674" y="-333" font-family="Open Sans, Noto Sans SC, Noto Sans TC, Noto Sans JP, Noto Sans KR" font-size="10.00" fill="white">Lees </text><text text-anchor="start" x="161.674" y="-333" font-family="Open Sans, Noto Sans SC, Noto Sans TC, Noto Sans JP, Noto Sans KR" font-weight="bold" font-size="10.00" fill="white">data</text></g><!-- process_block_11&#45;&gt;process_block_12 --><g id="edge12" class="edge"><title>process_block_11->process_block_12</title><path fill="none" stroke="#000000" d="M164.619,-379.966C164.303,-376.292 163.962,-372.342 163.623,-368.406"/><polygon fill="#000000" stroke="#000000" points="167.091,-367.885 162.745,-358.222 160.117,-368.486 167.091,-367.885"/></g><!-- ifs_block_13 --><g id="node13" class="node"><title>ifs_block_13</title><polygon fill="url(#g-decisionwdosnqtti)" stroke="#d1461b" points="158.174,-300 -0.174265,-282 158.174,-264 316.522,-282 158.174,-300"/><text text-anchor="start" x="71.1741" y="-280.5" font-family="Open Sans, Noto Sans SC, Noto Sans TC, Noto Sans JP, Noto Sans KR" font-weight="bold" font-size="10.00" fill="white">Mijn adres</text><text text-anchor="start" x="123.174" y="-280.5" font-family="Open Sans, Noto Sans SC, Noto Sans TC, Noto Sans JP, Noto Sans KR" font-size="10.00" fill="white"> </text><text text-anchor="start" x="125.174" y="-280.5" font-family="Noto Mono" font-size="10.00" fill="white">==</text><text text-anchor="start" x="137.174" y="-280.5" font-family="Open Sans, Noto Sans SC, Noto Sans TC, Noto Sans JP, Noto Sans KR" font-size="10.00" fill="white"> </text><text text-anchor="start" x="139.174" y="-280.5" font-family="Open Sans, Noto Sans SC, Noto Sans TC, Noto Sans JP, Noto Sans KR" font-weight="bold" font-size="10.00" fill="white">adres van ontvanger</text><text text-anchor="start" x="241.174" y="-280.5" font-family="Open Sans, Noto Sans SC, Noto Sans TC, Noto Sans JP, Noto Sans KR" font-size="10.00" fill="white">?</text></g><!-- process_block_12&#45;&gt;ifs_block_13 --><g id="edge13" class="edge"><title>process_block_12->ifs_block_13</title><path fill="none" stroke="#000000" d="M160.241,-321.966C160.051,-318.292 159.847,-314.342 159.643,-310.406"/><polygon fill="#000000" stroke="#000000" points="163.129,-310.028 159.117,-300.222 156.138,-310.39 163.129,-310.028"/></g><!-- process_block_14 --><g id="node14" class="node"><title>process_block_14</title><polygon fill="url(#g-processwdosnqtti)" stroke="#3f51b5" points="185.174,-242 83.1741,-242 83.1741,-206 185.174,-206 185.174,-242"/><text text-anchor="start" x="90.1741" y="-221.5" font-family="Open Sans, Noto Sans SC, Noto Sans TC, Noto Sans JP, Noto Sans KR" font-size="10.00" fill="white">Interpreteer data...</text></g><!-- ifs_block_13&#45;&gt;process_block_14 --><g id="edge14" class="edge"><title>ifs_block_13->process_block_14</title><path fill="none" stroke="#000000" d="M150.973,-264.598C149.281,-260.508 147.436,-256.05 145.609,-251.635"/><polygon fill="#000000" stroke="#000000" points="148.761,-250.097 141.703,-242.195 142.293,-252.773 148.761,-250.097"/><text text-anchor="start" x="132.295" y="-257.292" font-family="Open Sans, Noto Sans SC, Noto Sans TC, Noto Sans JP, Noto Sans KR" font-weight="bold" font-size="10.00" fill="#000000"> Ja </text></g><!-- process_block_18 --><g id="node18" class="node"><title>process_block_18</title><polygon fill="url(#g-processwdosnqtti)" stroke="#3f51b5" points="355.674,-242 218.674,-242 218.674,-206 355.674,-206 355.674,-242"/><text text-anchor="start" x="225.674" y="-221.5" font-family="Open Sans, Noto Sans SC, Noto Sans TC, Noto Sans JP, Noto Sans KR" font-size="10.00" fill="white">Negeer data, niet voor mij.</text></g><!-- ifs_block_13&#45;&gt;process_block_18 --><g id="edge18" class="edge"><title>ifs_block_13->process_block_18</title><path fill="none" stroke="#000000" d="M190.393,-267.514C204.742,-261.063 221.961,-253.321 237.872,-246.167"/><polygon fill="#000000" stroke="#000000" points="239.373,-249.33 247.058,-242.037 236.502,-242.945 239.373,-249.33"/><text text-anchor="start" x="193.877" y="-247.707" font-family="Open Sans, Noto Sans SC, Noto Sans TC, Noto Sans JP, Noto Sans KR" font-weight="bold" font-size="10.00" fill="#000000"> Nee </text></g><!-- ifs_block_15 --><g id="node15" class="node"><title>ifs_block_15</title><polygon fill="url(#g-decisionwdosnqtti)" stroke="#d1461b" points="124.174,-168 39.345,-150 124.174,-132 209.003,-150 124.174,-168"/><text text-anchor="start" x="81.1741" y="-147.5" font-family="Open Sans, Noto Sans SC, Noto Sans TC, Noto Sans JP, Noto Sans KR" font-size="10.00" fill="white">Interpreteren oke?</text></g><!-- process_block_14&#45;&gt;ifs_block_15 --><g id="edge15" class="edge"><title>process_block_14->ifs_block_15</title><path fill="none" stroke="#000000" d="M131.702,-205.708C130.559,-197.25 129.177,-187.021 127.91,-177.649"/><polygon fill="#000000" stroke="#000000" points="131.356,-177.013 126.549,-167.572 124.419,-177.951 131.356,-177.013"/></g><!-- process_block_16 --><g id="node16" class="node"><title>process_block_16</title><polygon fill="url(#g-processwdosnqtti)" stroke="#3f51b5" points="189.674,-94 64.6741,-94 64.6741,-58 189.674,-58 189.674,-94"/><text text-anchor="start" x="71.6741" y="-74.5" font-family="Open Sans, Noto Sans SC, Noto Sans TC, Noto Sans JP, Noto Sans KR" font-size="10.00" fill="white">Antwoord met </text><text text-anchor="start" x="140.674" y="-74.5" font-family="Noto Mono" font-size="10.00" fill="white">OK-byte</text></g><!-- ifs_block_15&#45;&gt;process_block_16 --><g id="edge16" class="edge"><title>ifs_block_15->process_block_16</title><path fill="none" stroke="#000000" d="M124.9,-132.087C125.24,-123.696 125.654,-113.501 126.034,-104.116"/><polygon fill="#000000" stroke="#000000" points="129.536,-104.138 126.444,-94.0049 122.542,-103.855 129.536,-104.138"/><text text-anchor="start" x="111.671" y="-117.072" font-family="Open Sans, Noto Sans SC, Noto Sans TC, Noto Sans JP, Noto Sans KR" font-weight="bold" font-size="10.00" fill="#000000"> Ja </text></g><!-- process_block_17 --><g id="node17" class="node"><title>process_block_17</title><polygon fill="url(#g-processwdosnqtti)" stroke="#3f51b5" points="374.174,-94 218.174,-94 218.174,-58 374.174,-58 374.174,-94"/><text text-anchor="start" x="225.174" y="-79" font-family="Open Sans, Noto Sans SC, Noto Sans TC, Noto Sans JP, Noto Sans KR" font-size="10.00" fill="white">Antwoord met een </text><text text-anchor="start" x="314.174" y="-79" font-family="Open Sans, Noto Sans SC, Noto Sans TC, Noto Sans JP, Noto Sans KR" font-style="italic" font-size="10.00" fill="white">FAILED-byte</text><text text-anchor="start" x="365.174" y="-79" font-family="Open Sans, Noto Sans SC, Noto Sans TC, Noto Sans JP, Noto Sans KR" font-size="10.00" fill="white"> </text><text text-anchor="start" x="234.674" y="-69" font-family="Open Sans, Noto Sans SC, Noto Sans TC, Noto Sans JP, Noto Sans KR" font-size="10.00" fill="white">of met een </text><text text-anchor="start" x="287.674" y="-69" font-family="Open Sans, Noto Sans SC, Noto Sans TC, Noto Sans JP, Noto Sans KR" font-style="italic" font-size="10.00" fill="white">UNKNOWN-byte</text></g><!-- ifs_block_15&#45;&gt;process_block_17 --><g id="edge17" class="edge"><title>ifs_block_15->process_block_17</title><path fill="none" stroke="#000000" d="M152.576,-137.78C177.545,-127.038 214.501,-111.138 244.669,-98.1592"/><polygon fill="#000000" stroke="#000000" points="246.399,-101.225 254.201,-94.0581 243.632,-94.7951 246.399,-101.225"/><text text-anchor="start" x="178.51" y="-119.867" font-family="Open Sans, Noto Sans SC, Noto Sans TC, Noto Sans JP, Noto Sans KR" font-weight="bold" font-size="10.00" fill="#000000"> Nee </text></g><!-- process_block_19 --><g id="node19" class="node"><title>process_block_19</title><polygon fill="url(#g-processwdosnqtti)" stroke="#3f51b5" points="396.174,-36 196.174,-36 196.174,-0 396.174,-0 396.174,-36"/><text text-anchor="start" x="203.174" y="-16.5" font-family="Open Sans, Noto Sans SC, Noto Sans TC, Noto Sans JP, Noto Sans KR" font-size="10.00" fill="white">Stuur antwoord naar </text><text text-anchor="start" x="302.174" y="-16.5" font-family="Open Sans, Noto Sans SC, Noto Sans TC, Noto Sans JP, Noto Sans KR" font-weight="bold" font-size="10.00" fill="white">adres van zender</text><text text-anchor="start" x="387.174" y="-16.5" font-family="Open Sans, Noto Sans SC, Noto Sans TC, Noto Sans JP, Noto Sans KR" font-size="10.00" fill="white">.</text></g><!-- process_block_16&#45;&gt;process_block_19 --><g id="edge20" class="edge"><title>process_block_16->process_block_19</title><path fill="none" stroke="#000000" d="M179.72,-57.9664C196.889,-52.0742 216.121,-45.4737 233.933,-39.3608"/><polygon fill="#000000" stroke="#000000" points="235.338,-42.5791 243.66,-36.0225 233.066,-35.9582 235.338,-42.5791"/></g><!-- process_block_17&#45;&gt;process_block_19 --><g id="edge21" class="edge"><title>process_block_17->process_block_19</title><path fill="none" stroke="#000000" d="M296.174,-57.9664C296.174,-54.2918 296.174,-50.3418 296.174,-46.4063"/><polygon fill="#000000" stroke="#000000" points="299.674,-46.2222 296.174,-36.2222 292.674,-46.2223 299.674,-46.2222"/></g><!-- process_block_18&#45;&gt;ifs_block_4 --><g id="edge19" class="edge"><title>process_block_18->ifs_block_4</title><path fill="none" stroke="#000000" d="M309.257,-242.267C315.778,-248.583 322.431,-256.08 327.174,-264 345.307,-294.276 350.174,-304.709 350.174,-340 350.174,-658 350.174,-658 350.174,-658 350.174,-687.361 350.174,-720.511 350.174,-745.717"/><polygon fill="#000000" stroke="#000000" points="346.674,-745.999 350.174,-755.999 353.674,-745.999 346.674,-745.999"/></g><!-- process_block_19&#45;&gt;ifs_block_4 --><g id="edge22" class="edge"><title>process_block_19->ifs_block_4</title><path fill="none" stroke="#000000" d="M356.124,-36.2097C366.972,-41.7619 377.317,-48.8938 385.174,-58 412.932,-90.1699 411.174,-107.51 411.174,-150 411.174,-658 411.174,-658 411.174,-658 411.174,-692.572 392.815,-727.735 376.241,-752.435"/><polygon fill="#000000" stroke="#000000" points="373.318,-750.508 370.486,-760.718 379.067,-754.503 373.318,-750.508"/></g><!-- comment_block_20 --><g id="node20" class="node"><title>comment_block_20</title><polygon fill="url(#g-commentwdosnqtti)" stroke="#ffab40" points="493.674,-876 348.674,-876 348.674,-838 499.674,-838 499.674,-870 493.674,-876"/><polyline fill="white" stroke="#ffab40" points="493.674,-876 493.674,-870 " stroke-width="0"/><polyline fill="white" stroke="#ffab40" points="499.674,-870 493.674,-870 " stroke-width="0"/><text text-anchor="start" x="366.674" y="-865" font-family="Open Sans, Noto Sans SC, Noto Sans TC, Noto Sans JP, Noto Sans KR" font-size="10.00" fill="black">  Ons protocol werkt met</text><text text-anchor="start" x="382.174" y="-855" font-family="Open Sans, Noto Sans SC, Noto Sans TC, Noto Sans JP, Noto Sans KR" font-size="10.00" fill="black">  minimum 4 byte.</text><text text-anchor="start" x="352.674" y="-845" font-family="Open Sans, Noto Sans SC, Noto Sans TC, Noto Sans JP, Noto Sans KR" font-size="10.00" fill="black">  </text><text text-anchor="start" x="357.674" y="-845" font-family="Noto Mono" font-size="10.00" fill="black">Serial.available() >= 4</text></g><!-- comment_block_20&#45;&gt;ifs_block_4 --><g id="edge24" class="edge"><title>comment_block_20->ifs_block_4</title><path fill="none" stroke="#000000" stroke-dasharray="5,2" d="M404.343,-837.973C395.439,-829.429 384.829,-819.25 375.369,-810.174"/></g><!-- comment_block_21 --><g id="node21" class="node"><title>comment_block_21</title><polygon fill="url(#g-commentwdosnqtti)" stroke="#ffab40" points="283.674,-676 192.674,-676 192.674,-640 289.674,-640 289.674,-670 283.674,-676"/><polyline fill="white" stroke="#ffab40" points="283.674,-676 283.674,-670 " stroke-width="0"/><polyline fill="white" stroke="#ffab40" points="289.674,-670 283.674,-670 " stroke-width="0"/><text text-anchor="start" x="196.674" y="-656.5" font-family="Open Sans, Noto Sans SC, Noto Sans TC, Noto Sans JP, Noto Sans KR" font-size="10.00" fill="black">  </text><text text-anchor="start" x="201.674" y="-656.5" font-family="Noto Mono" font-size="10.00" fill="black">Serial.peek();</text></g><!-- comment_block_21&#45;&gt;ifs_block_7 --><g id="edge25" class="edge"><title>comment_block_21->ifs_block_7</title><path fill="none" stroke="#000000" stroke-dasharray="5,2" d="M231.527,-639.777C227.445,-632.066 222.626,-622.965 218.233,-614.667"/></g><!-- comment_block_22 --><g id="node22" class="node"><title>comment_block_22</title><polygon fill="url(#g-commentwdosnqtti)" stroke="#ffab40" points="371.174,-184 231.174,-184 231.174,-116 377.174,-116 377.174,-178 371.174,-184"/><polyline fill="white" stroke="#ffab40" points="371.174,-184 371.174,-178 " stroke-width="0"/><polyline fill="white" stroke="#ffab40" points="377.174,-178 371.174,-178 " stroke-width="0"/><text text-anchor="start" x="255.174" y="-173" font-family="Open Sans, Noto Sans SC, Noto Sans TC, Noto Sans JP, Noto Sans KR" font-size="10.00" fill="black">  Antwoord met </text><text text-anchor="start" x="329.174" y="-173" font-family="Open Sans, Noto Sans SC, Noto Sans TC, Noto Sans JP, Noto Sans KR" font-style="italic" font-size="10.00" fill="black">failed</text><text text-anchor="start" x="236.674" y="-163" font-family="Open Sans, Noto Sans SC, Noto Sans TC, Noto Sans JP, Noto Sans KR" font-size="10.00" fill="black">  wanneer het gevraagde niet</text><text text-anchor="start" x="252.174" y="-153" font-family="Open Sans, Noto Sans SC, Noto Sans TC, Noto Sans JP, Noto Sans KR" font-size="10.00" fill="black">  voltooid kon worden.</text><text text-anchor="start" x="239.674" y="-143" font-family="Open Sans, Noto Sans SC, Noto Sans TC, Noto Sans JP, Noto Sans KR" font-size="10.00" fill="black">  Antwoord met </text><text text-anchor="start" x="313.674" y="-143" font-family="Open Sans, Noto Sans SC, Noto Sans TC, Noto Sans JP, Noto Sans KR" font-style="italic" font-size="10.00" fill="black">unknown</text><text text-anchor="start" x="353.674" y="-143" font-family="Open Sans, Noto Sans SC, Noto Sans TC, Noto Sans JP, Noto Sans KR" font-size="10.00" fill="black"> als</text><text text-anchor="start" x="235.174" y="-133" font-family="Open Sans, Noto Sans SC, Noto Sans TC, Noto Sans JP, Noto Sans KR" font-size="10.00" fill="black">  de data niet herkend was als</text><text text-anchor="start" x="248.674" y="-123" font-family="Open Sans, Noto Sans SC, Noto Sans TC, Noto Sans JP, Noto Sans KR" font-size="10.00" fill="black">  een geldig commando.</text></g><!-- comment_block_22&#45;&gt;process_block_17 --><g id="edge26" class="edge"><title>comment_block_22->process_block_17</title><path fill="none" stroke="#000000" stroke-dasharray="5,2" d="M300.455,-115.6C299.655,-108.202 298.841,-100.665 298.139,-94.1794"/></g></g></svg>